<svg width="8" height="13" viewBox="0 0 8 13" fill="none" xmlns="http://www.w3.org/2000/svg">
<path d="M4.00023 0.5C1.80149 0.5 0 2.38616 0 4.68823C0 5.58007 0.271314 6.40903 0.730514 7.0905L3.512 12.1393C3.9016 12.6736 4.16057 12.5721 4.48457 12.1111L7.55234 6.6291C7.61429 6.51138 7.66286 6.38598 7.70526 6.25807C7.89994 5.75994 8.00007 5.22667 8 4.68823C8 2.38616 6.19886 0.5 4.00023 0.5ZM4.00023 2.46247C5.18411 2.46247 6.1256 3.44863 6.1256 4.68823C6.1256 5.92783 5.18411 6.9135 4.00023 6.9135C2.81623 6.9135 1.8744 5.92771 1.8744 4.68823C1.8744 3.44863 2.81634 2.46247 4.00023 2.46247Z" fill="#1C201E"/>
</svg>
