<svg width="36" height="36" viewBox="0 0 36 36" fill="none" xmlns="http://www.w3.org/2000/svg">
<path d="M15.8091 8.88535C16.1254 9.53282 15.6044 10.4365 14.651 10.8976C13.6975 11.3634 12.6696 11.2097 12.3533 10.5623C12.037 9.91478 12.5579 9.01112 13.5114 8.54997C14.4649 8.08882 15.4928 8.23788 15.8091 8.88535Z" fill="#159A50"/>
<path d="M36 18.2663C35.9953 25.7751 30.4093 30.0699 29.8046 30.517L27.3628 27.4893C27.9628 27.0235 32.2372 23.5812 32.1209 18.2663C32.014 13.366 28.1907 7.77637 23.8651 8.1397C20.7395 8.40521 17.8605 11.7404 17.6837 14.824C17.5581 16.9993 19.3581 19.3517 22.9628 23.9631C24.3442 25.7286 25.5628 27.1493 26.4512 28.1461C27.7535 29.6693 28.5674 30.5543 28.9209 30.8524C29.0279 30.9642 29.0326 31.1319 28.9535 31.2251C28.8558 31.3369 28.6465 31.3462 28.5209 31.2018C27.4977 30.382 26.4698 29.5668 25.4465 28.747C25.4465 28.747 17.3442 22.6403 15.8372 22.3468C13.8651 21.9602 10.693 22.8732 7.92093 24.1169C7.79535 24.1728 7.69302 24.2193 7.62325 24.2519C7.38139 24.4336 7.09767 24.3777 7.02791 24.2519C6.95814 24.1308 7.03256 23.87 7.28837 23.7349C7.36279 23.679 7.47907 23.5952 7.6186 23.488C10.3023 21.4711 14.6977 17.3906 13.8465 15.5879C13.7023 15.2898 13.3395 14.8939 12.2744 14.7076C10.7674 14.3815 9.26512 14.0601 7.75814 13.734C7.72558 13.7247 7.69767 13.7107 7.66512 13.7014C7.60465 13.6921 7.56279 13.6409 7.55814 13.5896C7.55349 13.5244 7.6093 13.4592 7.68372 13.4592C7.71628 13.4546 7.76744 13.4452 7.82791 13.4359C9.12093 13.2077 11.6791 12.6114 14.693 11.3538C15.093 11.1861 15.4512 11.0091 15.8279 10.8134C16.493 10.4687 17.2093 10.0961 18.0186 9.47191C18.093 9.41601 18.5442 9.062 19.0651 8.52166C19.3302 8.24684 19.4651 8.1071 19.5535 7.93475C19.8186 7.40839 19.8326 6.63515 19.4279 6.27182C19.2884 6.14605 19.1302 6.10413 18.8465 6.02494C18.4977 5.92712 18.2 5.91315 18 5.9178C16.8558 5.8852 12.2698 5.89451 8.4 9.30422C5.07442 12.2388 3.88372 16.2727 3.87907 18.2663C3.87907 19.1234 4.01395 19.9898 4.01395 19.9898C4.25116 21.4618 4.73953 22.603 5.12093 23.3297C5.40465 23.7861 5.71628 24.2659 6.06512 24.755C6.37674 25.1929 6.68837 25.6028 6.99535 25.9847C9.57674 28.8029 13.5535 30.6149 18 30.6149C20.3535 30.6149 22.5767 30.1118 24.5302 29.2128L28.0558 31.7281C25.186 33.4842 21.7256 34.4997 18 34.4997C12.0372 34.4997 6.75349 31.8819 3.47907 27.8573L3.49302 27.848C3.48837 27.8526 3.48372 27.8526 3.47907 27.8573C3.28372 27.6384 3.08372 27.3915 2.88372 27.112C2.64186 26.7766 2.44186 26.4599 2.27907 26.1618C1.2186 24.4522 0.493023 22.5471 0.176744 20.5302C0.176744 20.5302 0 19.4076 0 18.2617C0.00465116 15.4575 1.20465 10.9345 4.64651 7.34317C4.64651 7.34317 9.69302 2.07956 17.9953 2.02832C18.0698 2.02832 18.1395 2.02832 18.1395 2.02832C18.2326 2.02832 18.3023 2.02832 18.307 2.02832C19.0651 2.04695 19.2744 2.43823 19.2744 2.43823C19.307 2.50344 19.3674 2.63853 19.3256 2.86211C19.3116 2.91335 19.3023 2.96459 19.293 3.02049C19.1256 4.06389 19.6372 5.0188 20.1256 5.67559L20.1302 5.68024C20.2651 5.83396 20.4046 5.97836 20.5674 6.1181C21.2093 6.66309 22.0465 7.05903 23 7.22206C23.4837 7.30591 23.9581 7.31522 24.4093 7.26398C24.5674 7.25001 24.7209 7.22672 24.8651 7.19411H24.8698C25.3256 7.11493 26.093 6.90531 26.7814 6.29977C26.9721 6.13208 27.1302 5.95973 27.2605 5.79669C27.3535 5.69422 27.6465 5.40076 28.1209 5.31691C28.8139 5.20046 29.3209 5.63832 29.386 5.69888C29.9442 6.07618 36.0046 10.4361 36 18.2663Z" fill="#159A50"/>
<path d="M26.0187 4.09217C25.8233 5.26135 24.5024 6.01595 23.0652 5.77373C21.6233 5.53617 20.6187 4.39495 20.8093 3.22577C20.8652 2.87176 21.028 2.56433 21.2698 2.30348C21.8094 1.69793 22.7582 1.37652 23.7628 1.54421C25.0605 1.75848 26.0094 2.70873 26.0373 3.74282C26.0466 3.85461 26.0419 3.97572 26.0187 4.09217Z" fill="#159A50"/>
</svg>
